<svg width="32" height="32" viewBox="0 0 32 32" fill="none" xmlns="http://www.w3.org/2000/svg">
<g clip-path="url(#clip0_7_356)">
<path d="M6.01257e-06 5C6.01257e-06 4.20435 0.316077 3.44129 0.878686 2.87868C1.44129 2.31607 2.20436 2 3.00001 2H25C25.7957 2 26.5587 2.31607 27.1213 2.87868C27.6839 3.44129 28 4.20435 28 5V26.056C28 26.656 27.9 27.364 27.524 28H29C29.2652 28 29.5196 27.8946 29.7071 27.7071C29.8946 27.5196 30 27.2652 30 27V9C30 8.73478 30.1054 8.48043 30.2929 8.29289C30.4804 8.10536 30.7348 8 31 8C31.2652 8 31.5196 8.10536 31.7071 8.29289C31.8946 8.48043 32 8.73478 32 9V27C32 27.7956 31.6839 28.5587 31.1213 29.1213C30.5587 29.6839 29.7957 30 29 30H2.99401C2.60032 30 2.2105 29.9224 1.84686 29.7715C1.48322 29.6207 1.1529 29.3996 0.874804 29.121C0.596707 28.8423 0.376296 28.5115 0.226186 28.1476C0.076077 27.7837 -0.000782931 27.3937 6.01257e-06 27V5ZM24 28C24.74 28 25.308 27.578 25.706 27.118C25.89 26.906 26 26.56 26 26.056V5C26 4.73478 25.8946 4.48043 25.7071 4.29289C25.5196 4.10536 25.2652 4 25 4H3.00001C2.73479 4 2.48044 4.10536 2.2929 4.29289C2.10536 4.48043 2.00001 4.73478 2.00001 5V27C2.00001 27.556 2.44601 28 2.99401 28H24Z" fill="#D95A57"/>
<path d="M4 6H24V10H4V6ZM4 12H12V18H4V12ZM4 20H12V22H4V20ZM4 24H12V26H4V24ZM14 12H18V14H14V12ZM20 12H24V14H20V12ZM14 16H18V18H14V16ZM20 16H24V18H20V16ZM14 20H18V22H14V20ZM20 20H24V22H20V20ZM14 24H18V26H14V24ZM20 24H24V26H20V24Z" fill="#D95A57"/>
</g>
<defs>
<clipPath id="clip0_7_356">
<rect width="32" height="32" fill="white"/>
</clipPath>
</defs>
</svg>
