<svg width="32" height="32" viewBox="0 0 32 32" fill="none" xmlns="http://www.w3.org/2000/svg">
<g clip-path="url(#clip0_7_970)">
<path d="M29 6C29.2652 6 29.5196 6.10536 29.7071 6.29289C29.8946 6.48043 30 6.73478 30 7V25C30 25.2652 29.8946 25.5196 29.7071 25.7071C29.5196 25.8946 29.2652 26 29 26H3C2.73478 26 2.48043 25.8946 2.29289 25.7071C2.10536 25.5196 2 25.2652 2 25V7C2 6.73478 2.10536 6.48043 2.29289 6.29289C2.48043 6.10536 2.73478 6 3 6H29ZM3 4C2.20435 4 1.44129 4.31607 0.87868 4.87868C0.31607 5.44129 0 6.20435 0 7L0 25C0 25.7956 0.31607 26.5587 0.87868 27.1213C1.44129 27.6839 2.20435 28 3 28H29C29.7956 28 30.5587 27.6839 31.1213 27.1213C31.6839 26.5587 32 25.7956 32 25V7C32 6.20435 31.6839 5.44129 31.1213 4.87868C30.5587 4.31607 29.7956 4 29 4H3Z" fill="#D95A57"/>
<path d="M14 11C14 10.7348 14.1054 10.4804 14.2929 10.2929C14.4804 10.1054 14.7348 10 15 10H25C25.2652 10 25.5196 10.1054 25.7071 10.2929C25.8946 10.4804 26 10.7348 26 11C26 11.2652 25.8946 11.5196 25.7071 11.7071C25.5196 11.8947 25.2652 12 25 12H15C14.7348 12 14.4804 11.8947 14.2929 11.7071C14.1054 11.5196 14 11.2652 14 11ZM11.008 9.29202C11.1011 9.38491 11.175 9.49526 11.2254 9.61675C11.2758 9.73824 11.3018 9.86848 11.3018 10C11.3018 10.1316 11.2758 10.2618 11.2254 10.3833C11.175 10.5048 11.1011 10.6151 11.008 10.708L8.008 13.708C7.91511 13.8011 7.80476 13.875 7.68327 13.9254C7.56178 13.9759 7.43153 14.0018 7.3 14.0018C7.16847 14.0018 7.03822 13.9759 6.91673 13.9254C6.79524 13.875 6.68489 13.8011 6.592 13.708L5.592 12.708C5.49902 12.615 5.42527 12.5047 5.37495 12.3832C5.32464 12.2617 5.29874 12.1315 5.29874 12C5.29874 11.7345 5.40423 11.4798 5.592 11.292C5.77977 11.1042 6.03445 10.9988 6.3 10.9988C6.56555 10.9988 6.82023 11.1042 7.008 11.292L7.3 11.586L9.592 9.29202C9.68489 9.19889 9.79524 9.125 9.91673 9.07459C10.0382 9.02418 10.1685 8.99823 10.3 8.99823C10.4315 8.99823 10.5618 9.02418 10.6833 9.07459C10.8048 9.125 10.9151 9.19889 11.008 9.29202ZM14 19C14 18.7348 14.1054 18.4804 14.2929 18.2929C14.4804 18.1054 14.7348 18 15 18H25C25.2652 18 25.5196 18.1054 25.7071 18.2929C25.8946 18.4804 26 18.7348 26 19C26 19.2652 25.8946 19.5196 25.7071 19.7071C25.5196 19.8947 25.2652 20 25 20H15C14.7348 20 14.4804 19.8947 14.2929 19.7071C14.1054 19.5196 14 19.2652 14 19ZM11.008 17.292C11.1011 17.3849 11.175 17.4953 11.2254 17.6168C11.2758 17.7382 11.3018 17.8685 11.3018 18C11.3018 18.1316 11.2758 18.2618 11.2254 18.3833C11.175 18.5048 11.1011 18.6151 11.008 18.708L8.008 21.708C7.91511 21.8011 7.80476 21.875 7.68327 21.9254C7.56178 21.9759 7.43153 22.0018 7.3 22.0018C7.16847 22.0018 7.03822 21.9759 6.91673 21.9254C6.79524 21.875 6.68489 21.8011 6.592 21.708L5.592 20.708C5.49902 20.615 5.42527 20.5047 5.37495 20.3832C5.32464 20.2617 5.29874 20.1315 5.29874 20C5.29874 19.8685 5.32464 19.7383 5.37495 19.6168C5.42527 19.4954 5.49902 19.385 5.592 19.292C5.68498 19.199 5.79535 19.1253 5.91683 19.075C6.03831 19.0247 6.16851 18.9988 6.3 18.9988C6.43149 18.9988 6.56169 19.0247 6.68317 19.075C6.80465 19.1253 6.91502 19.199 7.008 19.292L7.3 19.586L9.592 17.292C9.68489 17.1989 9.79524 17.125 9.91673 17.0746C10.0382 17.0242 10.1685 16.9982 10.3 16.9982C10.4315 16.9982 10.5618 17.0242 10.6833 17.0746C10.8048 17.125 10.9151 17.1989 11.008 17.292Z" fill="#D95A57"/>
</g>
<defs>
<clipPath id="clip0_7_970">
<rect width="32" height="32" fill="white"/>
</clipPath>
</defs>
</svg>
