<svg width="32" height="32" viewBox="0 0 32 32" fill="none" xmlns="http://www.w3.org/2000/svg">
<path d="M17.414 3C17.039 2.62506 16.5303 2.41443 16 2.41443C15.4697 2.41443 14.9611 2.62506 14.586 3L1.29201 16.292C1.19904 16.385 1.12528 16.4954 1.07497 16.6168C1.02465 16.7383 0.998749 16.8685 0.998749 17C0.998749 17.1315 1.02465 17.2617 1.07497 17.3832C1.12528 17.5047 1.19904 17.615 1.29201 17.708C1.47979 17.8958 1.73446 18.0013 2.00001 18.0013C2.1315 18.0013 2.2617 17.9754 2.38318 17.9251C2.50466 17.8747 2.61504 17.801 2.70801 17.708L4.00001 16.414V27C4.00001 27.7957 4.31608 28.5587 4.87869 29.1213C5.4413 29.6839 6.20436 30 7.00001 30H25C25.7957 30 26.5587 29.6839 27.1213 29.1213C27.6839 28.5587 28 27.7957 28 27V16.414L29.292 17.708C29.4798 17.8958 29.7345 18.0013 30 18.0013C30.2656 18.0013 30.5202 17.8958 30.708 17.708C30.8958 17.5202 31.0013 17.2656 31.0013 17C31.0013 16.7345 30.8958 16.4798 30.708 16.292L26 11.586V5C26 4.73479 25.8947 4.48043 25.7071 4.2929C25.5196 4.10536 25.2652 4 25 4H23C22.7348 4 22.4804 4.10536 22.2929 4.2929C22.1054 4.48043 22 4.73479 22 5V7.586L17.414 3ZM26 14.414V27C26 27.2652 25.8947 27.5196 25.7071 27.7071C25.5196 27.8946 25.2652 28 25 28H7.00001C6.7348 28 6.48044 27.8946 6.29291 27.7071C6.10537 27.5196 6.00001 27.2652 6.00001 27V14.414L16 4.414L26 14.414Z" fill="#D95A57"/>
</svg>
