<svg width="41" height="41" viewBox="0 0 41 41" fill="none" xmlns="http://www.w3.org/2000/svg">
<path d="M20.375 5C24.4527 5 28.3634 6.61986 31.2468 9.50323C34.1301 12.3866 35.75 16.2973 35.75 20.375C35.75 24.4527 34.1301 28.3634 31.2468 31.2468C28.3634 34.1301 24.4527 35.75 20.375 35.75C16.2973 35.75 12.3866 34.1301 9.50323 31.2468C6.61986 28.3634 5 24.4527 5 20.375C5 16.2973 6.61986 12.3866 9.50323 9.50323C12.3866 6.61986 16.2973 5 20.375 5ZM13.6484 19.4141C13.3936 19.4141 13.1492 19.5153 12.969 19.6955C12.7887 19.8757 12.6875 20.1201 12.6875 20.375C12.6875 20.6299 12.7887 20.8743 12.969 21.0545C13.1492 21.2347 13.3936 21.3359 13.6484 21.3359H24.7819L20.6556 25.4603C20.5662 25.5496 20.4954 25.6557 20.447 25.7724C20.3987 25.8892 20.3738 26.0143 20.3738 26.1406C20.3738 26.267 20.3987 26.3921 20.447 26.5088C20.4954 26.6256 20.5662 26.7316 20.6556 26.821C20.7449 26.9103 20.851 26.9812 20.9677 27.0295C21.0845 27.0779 21.2096 27.1028 21.3359 27.1028C21.4623 27.1028 21.5874 27.0779 21.7041 27.0295C21.8209 26.9812 21.9269 26.9103 22.0163 26.821L27.7819 21.0553C27.8714 20.9661 27.9424 20.86 27.9908 20.7433C28.0393 20.6266 28.0642 20.5014 28.0642 20.375C28.0642 20.2486 28.0393 20.1234 27.9908 20.0067C27.9424 19.89 27.8714 19.7839 27.7819 19.6947L22.0163 13.929C21.9269 13.8397 21.8209 13.7688 21.7041 13.7205C21.5874 13.6721 21.4623 13.6472 21.3359 13.6472C21.2096 13.6472 21.0845 13.6721 20.9677 13.7205C20.851 13.7688 20.7449 13.8397 20.6556 13.929C20.5662 14.0184 20.4954 14.1244 20.447 14.2412C20.3987 14.3579 20.3738 14.483 20.3738 14.6094C20.3738 14.7357 20.3987 14.8608 20.447 14.9776C20.4954 15.0943 20.5662 15.2004 20.6556 15.2897L24.7819 19.4141H13.6484Z" fill="#D95A57"/>
</svg>
