<svg width="28" height="28" viewBox="0 0 28 28" fill="none" xmlns="http://www.w3.org/2000/svg">
<path fill-rule="evenodd" clip-rule="evenodd" d="M21 14C21 14.2321 20.9078 14.4546 20.7437 14.6187C20.5796 14.7828 20.357 14.875 20.125 14.875H9.98723L13.7445 18.6305C13.8258 18.7119 13.8904 18.8084 13.9344 18.9147C13.9784 19.021 14.0011 19.135 14.0011 19.25C14.0011 19.3651 13.9784 19.479 13.9344 19.5853C13.8904 19.6916 13.8258 19.7882 13.7445 19.8695C13.6631 19.9509 13.5665 20.0154 13.4602 20.0594C13.354 20.1035 13.24 20.1261 13.125 20.1261C13.0099 20.1261 12.896 20.1035 12.7897 20.0594C12.6834 20.0154 12.5868 19.9509 12.5055 19.8695L7.25548 14.6195C7.17399 14.5382 7.10934 14.4417 7.06523 14.3354C7.02112 14.2291 6.99841 14.1151 6.99841 14C6.99841 13.8849 7.02112 13.771 7.06523 13.6646C7.10934 13.5583 7.17399 13.4618 7.25548 13.3805L12.5055 8.13051C12.6698 7.96621 12.8926 7.8739 13.125 7.8739C13.3573 7.8739 13.5802 7.96621 13.7445 8.13051C13.9088 8.29481 14.0011 8.51765 14.0011 8.75001C14.0011 8.98236 13.9088 9.20521 13.7445 9.36951L9.98723 13.125H20.125C20.357 13.125 20.5796 13.2172 20.7437 13.3813C20.9078 13.5454 21 13.7679 21 14Z" fill="#3EACFF"/>
</svg>
