<svg width="103" height="23" viewBox="0 0 103 23" fill="none" xmlns="http://www.w3.org/2000/svg">
<path fill-rule="evenodd" clip-rule="evenodd" d="M12.5 1.875C12.5 1.70924 12.4342 1.55027 12.3169 1.43306C12.1997 1.31585 12.0408 1.25 11.875 1.25H8.125C7.95924 1.25 7.80027 1.31585 7.68306 1.43306C7.56585 1.55027 7.5 1.70924 7.5 1.875V3.125C7.5 3.29076 7.56585 3.44973 7.68306 3.56694C7.80027 3.68415 7.95924 3.75 8.125 3.75H11.875C12.0408 3.75 12.1997 3.68415 12.3169 3.56694C12.4342 3.44973 12.5 3.29076 12.5 3.125V1.875ZM6.25 1.875C6.25 1.37772 6.44754 0.900805 6.79917 0.549175C7.15081 0.197544 7.62772 0 8.125 0L11.875 0C12.3723 0 12.8492 0.197544 13.2008 0.549175C13.5525 0.900805 13.75 1.37772 13.75 1.875V3.125C13.75 3.62228 13.5525 4.09919 13.2008 4.45083C12.8492 4.80246 12.3723 5 11.875 5H8.125C7.62772 5 7.15081 4.80246 6.79917 4.45083C6.44754 4.09919 6.25 3.62228 6.25 3.125V1.875ZM3.75 1.875H5V3.125C5 3.9538 5.32924 4.74866 5.91529 5.33471C6.50134 5.92076 7.2962 6.25 8.125 6.25H11.875C12.2854 6.25 12.6917 6.16917 13.0709 6.01212C13.45 5.85508 13.7945 5.62489 14.0847 5.33471C14.3749 5.04453 14.6051 4.70003 14.7621 4.32089C14.9192 3.94174 15 3.53538 15 3.125V1.875H16.25C16.913 1.875 17.5489 2.13839 18.0178 2.60723C18.4866 3.07607 18.75 3.71196 18.75 4.375V17.5C18.75 18.163 18.4866 18.7989 18.0178 19.2678C17.5489 19.7366 16.913 20 16.25 20H3.75C3.08696 20 2.45107 19.7366 1.98223 19.2678C1.51339 18.7989 1.25 18.163 1.25 17.5V4.375C1.25 3.71196 1.51339 3.07607 1.98223 2.60723C2.45107 2.13839 3.08696 1.875 3.75 1.875Z" fill="#D95A57"/>
<path d="M33.8359 11.7598H30.1836L30.1641 9.74805H33.2305C33.7708 9.74805 34.2135 9.67969 34.5586 9.54297C34.9036 9.39974 35.1608 9.19466 35.3301 8.92773C35.5059 8.6543 35.5938 8.32227 35.5938 7.93164C35.5938 7.48893 35.5091 7.13086 35.3398 6.85742C35.1771 6.58398 34.9199 6.38542 34.5684 6.26172C34.2233 6.13802 33.7773 6.07617 33.2305 6.07617H31.1992V18H28.2695V3.78125H33.2305C34.0573 3.78125 34.7962 3.85938 35.4473 4.01562C36.1048 4.17188 36.6615 4.40951 37.1172 4.72852C37.5729 5.04753 37.9212 5.45117 38.1621 5.93945C38.403 6.42122 38.5234 6.99414 38.5234 7.6582C38.5234 8.24414 38.39 8.78451 38.123 9.2793C37.8626 9.77409 37.4492 10.1777 36.8828 10.4902C36.3229 10.8027 35.5905 10.9753 34.6855 11.0078L33.8359 11.7598ZM33.709 18H29.3828L30.5254 15.7148H33.709C34.2233 15.7148 34.6432 15.6335 34.9688 15.4707C35.2943 15.3014 35.5352 15.0736 35.6914 14.7871C35.8477 14.5007 35.9258 14.1719 35.9258 13.8008C35.9258 13.3841 35.8542 13.0228 35.7109 12.7168C35.5742 12.4108 35.3529 12.1764 35.0469 12.0137C34.7409 11.8444 34.3372 11.7598 33.8359 11.7598H31.0137L31.0332 9.74805H34.5488L35.2227 10.5391C36.0885 10.526 36.7852 10.679 37.3125 10.998C37.8464 11.3105 38.2337 11.7174 38.4746 12.2188C38.722 12.7201 38.8457 13.2572 38.8457 13.8301C38.8457 14.7415 38.6471 15.5098 38.25 16.1348C37.8529 16.7533 37.2702 17.2188 36.502 17.5312C35.7402 17.8438 34.8092 18 33.709 18ZM40.418 12.8242V12.6191C40.418 11.8444 40.5286 11.1315 40.75 10.4805C40.9714 9.82292 41.2936 9.25326 41.7168 8.77148C42.14 8.28971 42.6608 7.91536 43.2793 7.64844C43.8978 7.375 44.6074 7.23828 45.4082 7.23828C46.209 7.23828 46.9219 7.375 47.5469 7.64844C48.1719 7.91536 48.696 8.28971 49.1191 8.77148C49.5488 9.25326 49.8743 9.82292 50.0957 10.4805C50.3171 11.1315 50.4277 11.8444 50.4277 12.6191V12.8242C50.4277 13.5924 50.3171 14.3053 50.0957 14.9629C49.8743 15.6139 49.5488 16.1836 49.1191 16.6719C48.696 17.1536 48.1751 17.528 47.5566 17.7949C46.9382 18.0618 46.2285 18.1953 45.4277 18.1953C44.627 18.1953 43.9141 18.0618 43.2891 17.7949C42.6706 17.528 42.1465 17.1536 41.7168 16.6719C41.2936 16.1836 40.9714 15.6139 40.75 14.9629C40.5286 14.3053 40.418 13.5924 40.418 12.8242ZM43.2305 12.6191V12.8242C43.2305 13.2669 43.2695 13.6803 43.3477 14.0645C43.4258 14.4486 43.5495 14.7871 43.7188 15.0801C43.8945 15.3665 44.1224 15.5911 44.4023 15.7539C44.6823 15.9167 45.0241 15.998 45.4277 15.998C45.8184 15.998 46.1536 15.9167 46.4336 15.7539C46.7135 15.5911 46.9382 15.3665 47.1074 15.0801C47.2767 14.7871 47.4004 14.4486 47.4785 14.0645C47.5632 13.6803 47.6055 13.2669 47.6055 12.8242V12.6191C47.6055 12.1895 47.5632 11.7858 47.4785 11.4082C47.4004 11.0241 47.2734 10.6855 47.0977 10.3926C46.9284 10.0931 46.7038 9.85872 46.4238 9.68945C46.1439 9.52018 45.8053 9.43555 45.4082 9.43555C45.0111 9.43555 44.6725 9.52018 44.3926 9.68945C44.1191 9.85872 43.8945 10.0931 43.7188 10.3926C43.5495 10.6855 43.4258 11.0241 43.3477 11.4082C43.2695 11.7858 43.2305 12.1895 43.2305 12.6191ZM57.8594 15.6172V10.9102C57.8594 10.5716 57.804 10.2819 57.6934 10.041C57.5827 9.79362 57.4102 9.60156 57.1758 9.46484C56.9479 9.32812 56.6517 9.25977 56.2871 9.25977C55.9746 9.25977 55.7044 9.3151 55.4766 9.42578C55.2487 9.52995 55.0729 9.68294 54.9492 9.88477C54.8255 10.0801 54.7637 10.3112 54.7637 10.5781H51.9512C51.9512 10.1289 52.0553 9.70247 52.2637 9.29883C52.472 8.89518 52.7747 8.54036 53.1719 8.23438C53.569 7.92188 54.041 7.67773 54.5879 7.50195C55.1413 7.32617 55.7598 7.23828 56.4434 7.23828C57.2637 7.23828 57.9928 7.375 58.6309 7.64844C59.2689 7.92188 59.7702 8.33203 60.1348 8.87891C60.5059 9.42578 60.6914 10.1094 60.6914 10.9297V15.4512C60.6914 16.0306 60.7272 16.5059 60.7988 16.877C60.8704 17.2415 60.9746 17.5605 61.1113 17.834V18H58.2695C58.1328 17.7135 58.0286 17.3555 57.957 16.9258C57.8919 16.4896 57.8594 16.0534 57.8594 15.6172ZM58.2305 11.5645L58.25 13.1562H56.6777C56.3066 13.1562 55.9844 13.1986 55.7109 13.2832C55.4375 13.3678 55.2129 13.4883 55.0371 13.6445C54.8613 13.7943 54.7311 13.9701 54.6465 14.1719C54.5684 14.3737 54.5293 14.5951 54.5293 14.8359C54.5293 15.0768 54.5846 15.2949 54.6953 15.4902C54.806 15.679 54.9655 15.8288 55.1738 15.9395C55.3822 16.0436 55.6263 16.0957 55.9062 16.0957C56.3294 16.0957 56.6973 16.0111 57.0098 15.8418C57.3223 15.6725 57.5632 15.4642 57.7324 15.2168C57.9082 14.9694 57.9993 14.735 58.0059 14.5137L58.748 15.7051C58.6439 15.972 58.5007 16.2487 58.3184 16.5352C58.1426 16.8216 57.918 17.0918 57.6445 17.3457C57.3711 17.5931 57.0423 17.7982 56.6582 17.9609C56.2741 18.1172 55.8184 18.1953 55.291 18.1953C54.6204 18.1953 54.0117 18.0618 53.4648 17.7949C52.9245 17.5215 52.4948 17.1471 52.1758 16.6719C51.8633 16.1901 51.707 15.6432 51.707 15.0312C51.707 14.4779 51.8112 13.9863 52.0195 13.5566C52.2279 13.127 52.5339 12.7656 52.9375 12.4727C53.3477 12.1732 53.8587 11.9486 54.4707 11.7988C55.0827 11.6426 55.7923 11.5645 56.5996 11.5645H58.2305ZM65.6719 9.73828V18H62.8594V7.43359H65.5059L65.6719 9.73828ZM68.8555 7.36523L68.8066 9.97266C68.6699 9.95312 68.5039 9.93685 68.3086 9.92383C68.1198 9.9043 67.9473 9.89453 67.791 9.89453C67.3939 9.89453 67.0488 9.94661 66.7559 10.0508C66.4694 10.1484 66.2285 10.2949 66.0332 10.4902C65.8444 10.6855 65.7012 10.9232 65.6035 11.2031C65.5124 11.4831 65.4603 11.8021 65.4473 12.1602L64.8809 11.9844C64.8809 11.3008 64.9492 10.6725 65.0859 10.0996C65.2227 9.52018 65.4212 9.01562 65.6816 8.58594C65.9486 8.15625 66.2741 7.82422 66.6582 7.58984C67.0423 7.35547 67.4818 7.23828 67.9766 7.23828C68.1328 7.23828 68.2923 7.2513 68.4551 7.27734C68.6178 7.29688 68.7513 7.32617 68.8555 7.36523ZM76.2285 15.6953V3H79.0605V18H76.5117L76.2285 15.6953ZM69.5488 12.8438V12.6387C69.5488 11.8314 69.64 11.099 69.8223 10.4414C70.0046 9.77734 70.2715 9.20768 70.623 8.73242C70.9746 8.25716 71.4076 7.88932 71.9219 7.62891C72.4362 7.36849 73.0221 7.23828 73.6797 7.23828C74.2982 7.23828 74.8385 7.36849 75.3008 7.62891C75.7695 7.88932 76.1667 8.26042 76.4922 8.74219C76.8242 9.21745 77.0911 9.7806 77.293 10.4316C77.4948 11.0762 77.6413 11.7826 77.7324 12.5508V13C77.6413 13.7357 77.4948 14.4193 77.293 15.0508C77.0911 15.6823 76.8242 16.2357 76.4922 16.7109C76.1667 17.1797 75.7695 17.5443 75.3008 17.8047C74.832 18.0651 74.2852 18.1953 73.6602 18.1953C73.0026 18.1953 72.4167 18.0618 71.9023 17.7949C71.3945 17.528 70.9648 17.1536 70.6133 16.6719C70.2682 16.1901 70.0046 15.6237 69.8223 14.9727C69.64 14.3216 69.5488 13.612 69.5488 12.8438ZM72.3613 12.6387V12.8438C72.3613 13.2799 72.3939 13.6868 72.459 14.0645C72.5306 14.4421 72.6445 14.7773 72.8008 15.0703C72.9635 15.3568 73.1719 15.5814 73.4258 15.7441C73.6862 15.9004 74.002 15.9785 74.373 15.9785C74.8548 15.9785 75.252 15.8711 75.5645 15.6562C75.877 15.4349 76.1146 15.1322 76.2773 14.748C76.4466 14.3639 76.5443 13.9212 76.5703 13.4199V12.1406C76.5508 11.7305 76.4922 11.3626 76.3945 11.0371C76.3034 10.7051 76.1667 10.4219 75.9844 10.1875C75.8086 9.95312 75.5872 9.77083 75.3203 9.64062C75.0599 9.51042 74.7507 9.44531 74.3926 9.44531C74.028 9.44531 73.7155 9.52995 73.4551 9.69922C73.1947 9.86198 72.9831 10.0866 72.8203 10.373C72.6641 10.6595 72.5469 10.998 72.4688 11.3887C72.3971 11.7728 72.3613 12.1895 72.3613 12.6387ZM84.2266 7.43359V18H81.4043V7.43359H84.2266ZM81.2285 4.67969C81.2285 4.26953 81.3717 3.93099 81.6582 3.66406C81.9447 3.39714 82.3288 3.26367 82.8105 3.26367C83.2858 3.26367 83.6667 3.39714 83.9531 3.66406C84.2461 3.93099 84.3926 4.26953 84.3926 4.67969C84.3926 5.08984 84.2461 5.42839 83.9531 5.69531C83.6667 5.96224 83.2858 6.0957 82.8105 6.0957C82.3288 6.0957 81.9447 5.96224 81.6582 5.69531C81.3717 5.42839 81.2285 5.08984 81.2285 4.67969ZM90.1348 18H87.3027V6.49609C87.3027 5.69531 87.459 5.02148 87.7715 4.47461C88.0905 3.92122 88.5365 3.50456 89.1094 3.22461C89.6888 2.93815 90.3757 2.79492 91.1699 2.79492C91.4303 2.79492 91.681 2.81445 91.9219 2.85352C92.1628 2.88607 92.3971 2.92839 92.625 2.98047L92.5957 5.09961C92.472 5.06706 92.3418 5.04427 92.2051 5.03125C92.0684 5.01823 91.9089 5.01172 91.7266 5.01172C91.388 5.01172 91.0983 5.07031 90.8574 5.1875C90.623 5.29818 90.444 5.46419 90.3203 5.68555C90.1966 5.9069 90.1348 6.17708 90.1348 6.49609V18ZM92.2441 7.43359V9.42578H85.7305V7.43359H92.2441ZM96.8535 16.8086L99.6562 7.43359H102.674L98.4258 19.5918C98.3346 19.8587 98.2109 20.1452 98.0547 20.4512C97.9049 20.7572 97.6999 21.0469 97.4395 21.3203C97.1855 21.6003 96.8633 21.8281 96.4727 22.0039C96.0885 22.1797 95.6165 22.2676 95.0566 22.2676C94.7897 22.2676 94.5716 22.2513 94.4023 22.2188C94.2331 22.1862 94.0312 22.1406 93.7969 22.082V20.0215C93.8685 20.0215 93.9434 20.0215 94.0215 20.0215C94.0996 20.028 94.1745 20.0312 94.2461 20.0312C94.6172 20.0312 94.9199 19.9889 95.1543 19.9043C95.3887 19.8197 95.5775 19.6895 95.7207 19.5137C95.8639 19.3444 95.9779 19.123 96.0625 18.8496L96.8535 16.8086ZM95.6816 7.43359L97.9766 15.0898L98.377 18.0684L96.4629 18.2734L92.6641 7.43359H95.6816Z" fill="#46494C"/>
</svg>
