<svg width="28" height="28" viewBox="0 0 28 28" fill="none" xmlns="http://www.w3.org/2000/svg">
<path fill-rule="evenodd" clip-rule="evenodd" d="M6.99844 14.0001C6.99844 13.768 7.09062 13.5454 7.25472 13.3813C7.41881 13.2172 7.64137 13.1251 7.87344 13.1251L18.0112 13.1251L14.2539 9.36955C14.1726 9.2882 14.108 9.19162 14.064 9.08533C14.02 8.97903 13.9973 8.86511 13.9973 8.75005C13.9973 8.635 14.02 8.52108 14.064 8.41478C14.108 8.30849 14.1726 8.21191 14.2539 8.13055C14.3353 8.0492 14.4319 7.98467 14.5382 7.94064C14.6445 7.89661 14.7584 7.87395 14.8734 7.87395C14.9885 7.87395 15.1024 7.89661 15.2087 7.94064C15.315 7.98467 15.4116 8.0492 15.4929 8.13055L20.7429 13.3806C20.8244 13.4618 20.8891 13.5584 20.9332 13.6647C20.9773 13.771 21 13.885 21 14.0001C21 14.1151 20.9773 14.2291 20.9332 14.3354C20.8891 14.4417 20.8244 14.5383 20.7429 14.6196L15.4929 19.8696C15.3286 20.0339 15.1058 20.1262 14.8734 20.1262C14.6411 20.1262 14.4182 20.0339 14.2539 19.8696C14.0896 19.7053 13.9973 19.4824 13.9973 19.2501C13.9973 19.0177 14.0896 18.7949 14.2539 18.6306L18.0112 14.8751L7.87344 14.8751C7.64137 14.8751 7.41881 14.7829 7.25472 14.6188C7.09062 14.4547 6.99844 14.2321 6.99844 14.0001Z" fill="#3EACFF"/>
</svg>
