<svg width="14" height="14" viewBox="0 0 14 14" fill="none" xmlns="http://www.w3.org/2000/svg">
<g clip-path="url(#clip0_5_111)">
<path d="M10.2741 9.05124C11.1214 7.89509 11.5009 6.46167 11.3367 5.03775C11.1724 3.61382 10.4766 2.30441 9.38844 1.37148C8.30025 0.438546 6.89993 -0.0491064 5.46763 0.00608265C4.03533 0.0612717 2.67669 0.655232 1.66351 1.66913C0.650333 2.68304 0.0573448 4.04211 0.00318071 5.47445C-0.0509834 6.90678 0.437671 8.30676 1.37138 9.39428C2.30509 10.4818 3.615 11.1767 5.03904 11.3399C6.46308 11.5031 7.89623 11.1226 9.05177 10.2745H9.0509C9.07657 10.3095 9.10515 10.343 9.13665 10.3751L12.5054 13.7439C12.6695 13.9081 12.892 14.0003 13.1242 14.0004C13.3563 14.0005 13.5789 13.9084 13.7431 13.7443C13.9073 13.5802 13.9996 13.3577 13.9996 13.1255C13.9997 12.8934 13.9076 12.6708 13.7435 12.5066L10.3748 9.13787C10.3435 9.10618 10.3099 9.0778 10.2741 9.05124ZM10.4999 5.68774C10.4999 6.31973 10.3754 6.94553 10.1336 7.5294C9.89172 8.11328 9.53723 8.64381 9.09035 9.09069C8.64347 9.53757 8.11294 9.89206 7.52906 10.1339C6.94519 10.3758 6.31939 10.5002 5.6874 10.5002C5.05541 10.5002 4.42962 10.3758 3.84574 10.1339C3.26186 9.89206 2.73133 9.53757 2.28445 9.09069C1.83757 8.64381 1.48308 8.11328 1.24123 7.5294C0.99938 6.94553 0.874901 6.31973 0.874901 5.68774C0.874901 4.41139 1.38193 3.18731 2.28445 2.28479C3.18697 1.38227 4.41105 0.875241 5.6874 0.875241C6.96376 0.875241 8.18783 1.38227 9.09035 2.28479C9.99287 3.18731 10.4999 4.41139 10.4999 5.68774Z" fill="white"/>
</g>
<defs>
<clipPath id="clip0_5_111">
<rect width="14" height="14" fill="white"/>
</clipPath>
</defs>
</svg>
